# xmcd
#
# Track frame offsets:
# 150
# 16599
# 37549
# 53629
# 70573
# 91377
# 103284
# 110067
# 124242
# 135804
# 153673
#
# Disc length: 2268 seconds
#
#
# Revision: 0
# Processed by: cddbd v1.5.1PL2 Copyright (c) Steve Scherf et al.
# Submitted via: FreeRIP 2.942 
#
DISCID=8008da0b
DTITLE=2Hot - Ragged Times
DYEAR=2006
DGENRE=Jazz
TTITLE0=Vorspann
TTITLE1=Mittwoch
TTITLE2=The Hit
TTITLE3=Coco Walk (Michel Camilo)
TTITLE4=Moonglow (Eddie de Lange/Will Hudson)
TTITLE5=Zugluft
TTITLE6=Ragged Times
TTITLE7=Altona
TTITLE8=Sambia
TTITLE9=Abspann
TTITLE10=Bonus Track: Sambia (alectronic-escape)
EXTD=actually it's boogie woogie
EXTT0=
EXTT1=
EXTT2=
EXTT3=
EXTT4=
EXTT5=
EXTT6=
EXTT7=
EXTT8=
EXTT9=
EXTT10=
PLAYORDER=
